<svg xmlns="http://www.w3.org/2000/svg" viewBox="0 0 960 960"><path d="M840.93,351.83c0-65.1,1.94-106-31.93-109.76V224.85c3-1.34,8.85-1.88,11.89-1.88,28.06,0,44.93,33.36,44.93,123.75v80.44s-2.63,43.31,20,43.31V492.8c-22.67,0-20,43.58-20,43.58v80.17c0,90.4-16.87,123.75-44.93,123.75-3,0-8.85-.53-11.89-1.88V721.2c33.87-3.76,31.93-44.65,31.93-109.76V542.3c0-23.94,7.47-54.61,26.82-60.53-19.35-6.19-26.82-36.85-26.82-60.8Z"/><path d="M92.25,481.77c19.35,5.92,26.82,36.59,26.82,60.53v69.14c0,65.11-1.94,106,31.93,109.76v17.22c-3,1.35-8.85,1.88-11.89,1.88-28.06,0-44.92-33.35-44.92-123.75V536.38s2.62-43.58-20-43.58V470.47c22.67,0,20-43.31,20-43.31V346.72c0-90.39,16.86-123.75,44.92-123.75,3,0,8.85.54,11.89,1.88v17.22c-33.87,3.77-31.93,44.66-31.93,109.76V421C119.07,444.92,111.6,475.58,92.25,481.77Z"/><path d="M450.48,688.72H162V513.43H405.69c30.83,0,44.79,7.47,44.79,51.43ZM421.73,566c0-24.05-4.84-29.58-19.08-29.58H190.73V665.77h231Z"/><path d="M531.49,513.43c48.1,0,51.7,31.24,51.7,75.76v99.53h-29V581c0-26.13.28-44.65-22-44.65H522.09V688.72h-52v-23h22.95V536.38H481.72v-23Z"/><path d="M607.93,731.29,618,658.86h25.16v25.57l-20.32,46.86Zm9-102.39V513.43h36.36V628.9Z"/><path d="M275.37,417.78v23H162.84v-23Z"/><path d="M320.85,265.44v92.35H291V265.44Z"/><path d="M393,265.44c47.55,0,51.29,31.25,51.29,75.76v99.53H415.15V333.46c0-26.13.83-45.07-23.92-45.07H374V440.73h-29V265.44Z"/><path d="M575.68,265.44c48.11,0,51.7,31.25,51.7,75.76v99.53h-29V333c0-26.12.28-44.65-22-44.65H566.28V440.73h-52v-23h22.94V288.39H525.92V265.44Z"/><path d="M677.86,265.44v92.35H648V265.44Z"/><path d="M735,265.44c38.85,0,54.47,18.94,54.47,66.36v42.85c0,47.42-15.62,66.08-54.47,66.08H697v-23h39.4c15.2,0,23.91-6.77,23.91-41.33V329.59c0-34.29-8.71-41.2-23.91-41.2H726v68.15H697v-91.1Z"/><path d="M458,483.31l10.09-72.44h25.16v25.57L473,483.31Zm9-102.39V265.44h36.35V380.92Z"/><path d="M738.15,513.43c47.56,0,51.29,31.24,51.29,75.76v99.53H760.27V581.44c0-26.12.83-45.06-23.91-45.06H719.08V688.72h-29V513.43Z"/><path d="M526.3,265.44h14.14a55.27,55.27,0,0,0-9.67-28l-3.77-.46-.47-8.58,10-1.16.46,8.11-3.71,1.86q7.18,10.43,9.28,28.27h5.79V227l-3.57-1.16V217.7h9.75V226l-3.63.93v38.47h6q0-14.35,9.5-28.27l-3.48-1.39.7-8.12,9.73.47-.69,8.81-3.84.46a44.62,44.62,0,0,0-9.6,28h16.22"/><path d="M482,513.43h14.14a55.27,55.27,0,0,0-9.67-28l-3.77-.47-.47-8.57,10-1.16.47,8.11L489,485.15q7.18,10.44,9.27,28.28h5.79V475l-3.56-1.15v-8.12h9.74V474l-3.63.92v38.48h6q0-14.37,9.5-28.28l-3.47-1.39.69-8.11,9.74.46-.7,8.81-3.84.47a44.63,44.63,0,0,0-9.6,28h16.22"/></svg>